<svg width="400" height="180" viewBox="0 0 400 180" xmlns="http://www.w3.org/2000/svg" role="img" aria-labelledby="title desc"><title id="title">Linguagens mais usadas</title><desc id="desc">JavaScript 61.5%, HTML 20.2%, CSS 12.3%, PLpgSQL 4.5%, TypeScript 1.5%</desc><rect x="0.5" y="0.5" width="399" height="179" rx="4.5" fill="#0000" stroke="#e4e2e2" stroke-opacity="0"/><g transform="translate(24 26)"><rect width="352" height="8" rx="4" fill="#e4e2e2"/><rect x="0.00" y="0" width="216.32" height="8" fill="#f1e05a"/><rect x="216.32" y="0" width="71.27" height="8" fill="#e34c26"/><rect x="287.59" y="0" width="43.18" height="8" fill="#563d7c"/><rect x="330.78" y="0" width="15.83" height="8" fill="#336790"/><rect x="346.61" y="0" width="5.39" height="8" fill="#3178c6"/></g><g transform="translate(24 66)"><circle cx="5" cy="-4" r="5" fill="#f1e05a"/><text x="17" y="0" fill="#1d87da" font-family="Segoe UI, Ubuntu, sans-serif" font-size="12"><tspan font-weight="600">JavaScript</tspan><tspan> 61,5%</tspan></text></g><g transform="translate(214 66)"><circle cx="5" cy="-4" r="5" fill="#e34c26"/><text x="17" y="0" fill="#1d87da" font-family="Segoe UI, Ubuntu, sans-serif" font-size="12"><tspan font-weight="600">HTML</tspan><tspan> 20,2%</tspan></text></g><g transform="translate(24 100)"><circle cx="5" cy="-4" r="5" fill="#563d7c"/><text x="17" y="0" fill="#1d87da" font-family="Segoe UI, Ubuntu, sans-serif" font-size="12"><tspan font-weight="600">CSS</tspan><tspan> 12,3%</tspan></text></g><g transform="translate(214 100)"><circle cx="5" cy="-4" r="5" fill="#336790"/><text x="17" y="0" fill="#1d87da" font-family="Segoe UI, Ubuntu, sans-serif" font-size="12"><tspan font-weight="600">PLpgSQL</tspan><tspan> 4,5%</tspan></text></g><g transform="translate(24 134)"><circle cx="5" cy="-4" r="5" fill="#3178c6"/><text x="17" y="0" fill="#1d87da" font-family="Segoe UI, Ubuntu, sans-serif" font-size="12"><tspan font-weight="600">TypeScript</tspan><tspan> 1,5%</tspan></text></g></svg>