<svg width="400" height="180" viewBox="0 0 400 180" xmlns="http://www.w3.org/2000/svg" role="img" aria-labelledby="title desc"><title id="title">Linguagens mais usadas</title><desc id="desc">JavaScript 54.1%, HTML 28.3%, CSS 11.9%, PLpgSQL 3.3%, TypeScript 2.4%</desc><rect x="0.5" y="0.5" width="399" height="179" rx="4.5" fill="#0000" stroke="#e4e2e2" stroke-opacity="0"/><g transform="translate(24 26)"><rect width="352" height="8" rx="4" fill="#e4e2e2"/><rect x="0.00" y="0" width="190.61" height="8" fill="#f1e05a"/><rect x="190.61" y="0" width="99.47" height="8" fill="#e34c26"/><rect x="290.07" y="0" width="41.91" height="8" fill="#563d7c"/><rect x="331.99" y="0" width="11.70" height="8" fill="#336790"/><rect x="343.69" y="0" width="8.31" height="8" fill="#3178c6"/></g><g transform="translate(24 66)"><circle cx="5" cy="-4" r="5" fill="#f1e05a"/><text x="17" y="0" fill="#1d87da" font-family="Segoe UI, Ubuntu, sans-serif" font-size="12"><tspan font-weight="600">JavaScript</tspan><tspan> 54,1%</tspan></text></g><g transform="translate(214 66)"><circle cx="5" cy="-4" r="5" fill="#e34c26"/><text x="17" y="0" fill="#1d87da" font-family="Segoe UI, Ubuntu, sans-serif" font-size="12"><tspan font-weight="600">HTML</tspan><tspan> 28,3%</tspan></text></g><g transform="translate(24 100)"><circle cx="5" cy="-4" r="5" fill="#563d7c"/><text x="17" y="0" fill="#1d87da" font-family="Segoe UI, Ubuntu, sans-serif" font-size="12"><tspan font-weight="600">CSS</tspan><tspan> 11,9%</tspan></text></g><g transform="translate(214 100)"><circle cx="5" cy="-4" r="5" fill="#336790"/><text x="17" y="0" fill="#1d87da" font-family="Segoe UI, Ubuntu, sans-serif" font-size="12"><tspan font-weight="600">PLpgSQL</tspan><tspan> 3,3%</tspan></text></g><g transform="translate(24 134)"><circle cx="5" cy="-4" r="5" fill="#3178c6"/><text x="17" y="0" fill="#1d87da" font-family="Segoe UI, Ubuntu, sans-serif" font-size="12"><tspan font-weight="600">TypeScript</tspan><tspan> 2,4%</tspan></text></g></svg>